# Made in Blockbench 5.0.7
mtllib bow.mtl

o cube
v 0.04375000000000007 0.85625 0.10000000000000009
v 0.04375000000000007 0.85625 0.0625
v 0.04375000000000007 0.4375 0.10000000000000009
v 0.04375000000000007 0.4375 0.0625
v 0.018749999999999933 0.85625 0.0625
v 0.018749999999999933 0.85625 0.10000000000000009
v 0.018749999999999933 0.4375 0.0625
v 0.018749999999999933 0.4375 0.10000000000000009
vt 0.0625 0.98125
vt 0.08750000000000013 0.98125
vt 0.08750000000000013 0.5625
vt 0.0625 0.5625
vt 0.025000000000000022 0.98125
vt 0.0625 0.98125
vt 0.0625 0.5625
vt 0.025000000000000022 0.5625
vt 0 0.98125
vt 0.025000000000000133 0.98125
vt 0.025000000000000133 0.5625
vt 0 0.5625
vt 0.0625 0.98125
vt 0.09999999999999998 0.98125
vt 0.09999999999999998 0.5625
vt 0.0625 0.5625
vt 0 0.9375
vt 0.025000000000000133 0.9375
vt 0.025000000000000133 0.9
vt 0 0.9
vt 0 0.975
vt 0.025000000000000133 0.975
vt 0.025000000000000133 0.9375
vt 0 0.9375
vn 0 0 -1
vn 1 0 0
vn 0 0 1
vn -1 0 0
vn 0 1 0
vn 0 -1 0
usemtl none
f 4/4/1 7/3/1 5/2/1 2/1/1
f 3/8/2 4/7/2 2/6/2 1/5/2
f 8/12/3 3/11/3 1/10/3 6/9/3
f 7/16/4 8/15/4 6/14/4 5/13/4
f 6/20/5 1/19/5 2/18/5 5/17/5
f 7/24/6 4/23/6 3/22/6 8/21/6
o cube
v 0.03750000000000009 0.5944092252920076 0.024226775488620733
v 0.03750000000000009 0.581741908899214 0.010402825423430878
v 0.03750000000000009 0.5114655249008686 0.10023067384538253
v 0.03750000000000009 0.49879820850807494 0.08640672378019267
v 0.02499999999999991 0.581741908899214 0.010402825423430878
v 0.02499999999999991 0.5944092252920076 0.024226775488620733
v 0.02499999999999991 0.49879820850807494 0.08640672378019267
v 0.02499999999999991 0.5114655249008686 0.10023067384538253
vt 0.0625 0.95
vt 0.07500000000000018 0.95
vt 0.07500000000000018 0.8374999999999999
vt 0.0625 0.8374999999999999
vt 0 0.95
vt 0.018750000000000044 0.95
vt 0.018750000000000044 0.8374999999999999
vt 0 0.8374999999999999
vt 0 0.95
vt 0.012500000000000178 0.95
vt 0.012500000000000178 0.8374999999999999
vt 0 0.8374999999999999
vt 0.09375 0.95
vt 0.11250000000000004 0.95
vt 0.11250000000000004 0.8374999999999999
vt 0.09375 0.8374999999999999
vt 0 0.90625
vt 0.012500000000000178 0.90625
vt 0.012500000000000178 0.8875
vt 0 0.8875
vt 0 1
vt 0.012500000000000178 1
vt 0.012500000000000178 0.98125
vt 0 0.98125
vn 0 -0.6755902076156601 -0.7372773368101242
vn 1 0 0
vn 0 0.6755902076156601 0.7372773368101242
vn -1 0 0
vn 0 0.7372773368101242 -0.6755902076156601
vn 0 -0.7372773368101242 0.6755902076156601
usemtl none
f 12/28/7 15/27/7 13/26/7 10/25/7
f 11/32/8 12/31/8 10/30/8 9/29/8
f 16/36/9 11/35/9 9/34/9 14/33/9
f 15/40/10 16/39/10 14/38/10 13/37/10
f 14/44/11 9/43/11 10/42/11 13/41/11
f 15/48/12 12/47/12 11/46/12 16/45/12
o cube
v 0.03750000000000009 0.8010344750991314 0.10023067384538253
v 0.03750000000000009 0.8137017914919251 0.08640672378019267
v 0.03750000000000009 0.7180907747079924 0.024226775488620733
v 0.03750000000000009 0.730758091100786 0.010402825423430878
v 0.02499999999999991 0.8137017914919251 0.08640672378019267
v 0.02499999999999991 0.8010344750991314 0.10023067384538253
v 0.02499999999999991 0.730758091100786 0.010402825423430878
v 0.02499999999999991 0.7180907747079924 0.024226775488620733
vt 0.0625 0.8374999999999999
vt 0.07500000000000018 0.8374999999999999
vt 0.07500000000000018 0.95
vt 0.0625 0.95
vt 0 0.8374999999999999
vt 0.018750000000000044 0.8374999999999999
vt 0.018750000000000044 0.95
vt 0 0.95
vt 0 0.8374999999999999
vt 0.012500000000000178 0.8374999999999999
vt 0.012500000000000178 0.95
vt 0 0.95
vt 0.09375 0.8374999999999999
vt 0.11250000000000004 0.8374999999999999
vt 0.11250000000000004 0.95
vt 0.09375 0.95
vt 0 0.98125
vt 0.012500000000000178 0.98125
vt 0.012500000000000178 1
vt 0 1
vt 0 0.8875
vt 0.012500000000000178 0.8875
vt 0.012500000000000178 0.90625
vt 0 0.90625
vn 0 0.6755902076156601 -0.7372773368101242
vn 1 0 0
vn 0 -0.6755902076156601 0.7372773368101242
vn -1 0 0
vn 0 0.7372773368101242 0.6755902076156601
vn 0 -0.7372773368101242 -0.6755902076156601
usemtl none
f 20/52/13 23/51/13 21/50/13 18/49/13
f 19/56/14 20/55/14 18/54/14 17/53/14
f 24/60/15 19/59/15 17/58/15 22/57/15
f 23/64/16 24/63/16 22/62/16 21/61/16
f 22/68/17 17/67/17 18/66/17 21/65/17
f 23/72/18 20/71/18 19/70/18 24/69/18
o cube
v 0.04374999813735492 0.9784235601034215 0.18479648955552408
v 0.04374999813735492 0.9985722954164274 0.15316931033754078
v 0.04374999813735492 0.836101253622497 0.09412718064699757
v 0.04374999813735492 0.856249988935503 0.06250000142901428
v 0.018749998137354784 0.9985722954164274 0.15316931033754078
v 0.018749998137354784 0.9784235601034215 0.18479648955552408
v 0.018749998137354784 0.856249988935503 0.06250000142901428
v 0.018749998137354784 0.836101253622497 0.09412718064699757
vt 0.0625 0.98125
vt 0.08750000000000013 0.98125
vt 0.08750000000000013 0.8125
vt 0.0625 0.8125
vt 0.025000000000000022 0.98125
vt 0.0625 0.98125
vt 0.0625 0.8125
vt 0.025000000000000022 0.8125
vt 0 0.98125
vt 0.025000000000000133 0.98125
vt 0.025000000000000133 0.8125
vt 0 0.8125
vt 0.0625 0.98125
vt 0.09999999999999998 0.98125
vt 0.09999999999999998 0.8125
vt 0.0625 0.8125
vt 0 0.9375
vt 0.025000000000000133 0.9375
vt 0.025000000000000133 0.9
vt 0 0.9
vt 0 0.975
vt 0.025000000000000133 0.975
vt 0.025000000000000133 0.9375
vt 0 0.9375
vn 0 0.5372996083468239 -0.8433914458128857
vn 1 0 0
vn 0 -0.5372996083468239 0.8433914458128857
vn -1 0 0
vn 0 0.8433914458128857 0.5372996083468239
vn 0 -0.8433914458128857 -0.5372996083468239
usemtl none
f 28/76/19 31/75/19 29/74/19 26/73/19
f 27/80/20 28/79/20 26/78/20 25/77/20
f 32/84/21 27/83/21 25/82/21 30/81/21
f 31/88/22 32/87/22 30/86/22 29/85/22
f 30/92/23 25/91/23 26/90/23 29/89/23
f 31/96/24 28/95/24 27/94/24 32/93/24
o cube
v 0.04374999813735492 0.45764873445657406 0.09412718064699757
v 0.04374999813735492 0.43749999914356813 0.06250000142901428
v 0.04374999813735492 0.31532642797564964 0.18479648955552408
v 0.04374999813735492 0.2951776926626437 0.15316931033754078
v 0.018749998137354784 0.43749999914356813 0.06250000142901428
v 0.018749998137354784 0.45764873445657406 0.09412718064699757
v 0.018749998137354784 0.2951776926626437 0.15316931033754078
v 0.018749998137354784 0.31532642797564964 0.18479648955552408
vt 0.0625 0.8125
vt 0.08750000000000013 0.8125
vt 0.08750000000000013 0.98125
vt 0.0625 0.98125
vt 0.025000000000000022 0.8125
vt 0.0625 0.8125
vt 0.0625 0.98125
vt 0.025000000000000022 0.98125
vt 0 0.8125
vt 0.025000000000000133 0.8125
vt 0.025000000000000133 0.98125
vt 0 0.98125
vt 0.0625 0.8125
vt 0.09999999999999998 0.8125
vt 0.09999999999999998 0.98125
vt 0.0625 0.98125
vt 0 0.9375
vt 0.025000000000000133 0.9375
vt 0.025000000000000133 0.975
vt 0 0.975
vt 0 0.9
vt 0.025000000000000133 0.9
vt 0.025000000000000133 0.9375
vt 0 0.9375
vn 0 -0.5372996083468239 -0.8433914458128857
vn 1 0 0
vn 0 0.5372996083468239 0.8433914458128857
vn -1 0 0
vn 0 0.8433914458128857 -0.5372996083468239
vn 0 -0.8433914458128857 0.5372996083468239
usemtl none
f 36/100/25 39/99/25 37/98/25 34/97/25
f 35/104/26 36/103/26 34/102/26 33/101/26
f 40/108/27 35/107/27 33/106/27 38/105/27
f 39/112/28 40/111/28 38/110/28 37/109/28
f 38/116/29 33/115/29 34/114/29 37/113/29
f 39/120/30 36/119/30 35/118/30 40/117/30