# Made in Blockbench 5.0.6
mtllib shiddycircle.mtl

o obj1
v 0.23798695625000002 0.1529768625 0.57675030625
v 0.15629094375 -0.000017487499999999998 0.60419180625
v 0.23798695625000002 -0.000017487499999999998 0.57675030625
v 0.15629094375 0.1529768625 0.60419180625
v 0.333698875 0.1529768625 0.527066175
v 0.333698875 -0.000017487499999999998 0.527066175
v 0.3922381625 0.1529768625 0.48530409375
v 0.3922381625 -0.000017487499999999998 0.48530409375
v 0.45654760000000005 0.1529768625 0.42524134999999996
v 0.45654760000000005 -0.000017487499999999998 0.42524134999999996
v 0.5001378187500001 0.1529768625 0.37311966874999997
v 0.5001378187500001 -0.000017487499999999998 0.37311966874999997
v 0.551669175 0.1529768625 0.29172835625
v 0.551669175 -0.000017487499999999998 0.29172835625
v 0.59343125625 0.1529768625 0.19295045625
v 0.59343125625 -0.000017487499999999998 0.19295045625
v 0.60653309375 0.1529768625 0.1460085625
v 0.60653309375 -0.000017487499999999998 0.1460085625
v 0.61993961875 0.1529768625 0.070711125
v 0.61993961875 -0.000017487499999999998 0.070711125
v 0.62390063125 0.1529768625 -0.0161456375
v 0.62390063125 -0.000017487499999999998 -0.0161456375
v 0.6181114375 0.1529768625 -0.0850445125
v 0.6181114375 -0.000017487499999999998 -0.0850445125
v 0.60074390625 0.1529768625 -0.16917808125
v 0.60074390625 -0.000017487499999999998 -0.16917808125
v 0.5824432375 0.1529768625 -0.22373730000000003
v 0.5824432375 -0.000017487499999999998 -0.22373730000000003
v 0.55867710625 0.1529768625 -0.278010875
v 0.55867710625 -0.000017487499999999998 -0.278010875
v 0.5144774750000001 0.1529768625 -0.3530036375
v 0.5144774750000001 -0.000017487499999999998 -0.3530036375
v 0.47484826874999997 0.1529768625 -0.4048206
v 0.47484826874999997 -0.000017487499999999998 -0.4048206
v 0.40320713750000003 0.1529768625 -0.47615704375
v 0.40320713750000003 -0.000017487499999999998 -0.47615704375
v 0.33217541875 0.1529768625 -0.5282786875
v 0.33217541875 -0.000017487499999999998 -0.5282786875
v 0.2898039375 0.1529768625 -0.55267323125
v 0.2898039375 -0.000017487499999999998 -0.55267323125
v 0.230045875 0.1529768625 -0.5800956875
v 0.230045875 -0.000017487499999999998 -0.5800956875
v 0.1840180625 -0.000017487499999999998 -0.59626349375
v 0.1840180625 0.1529768625 -0.59626349375
v 0.125497825 0.1529768625 -0.611193475
v 0.125497825 -0.000017487499999999998 -0.611193475
v 0.0258058375 0.1529768625 -0.623381225
v 0.0258058375 -0.000017487499999999998 -0.623381225
v 0.01544625 0.1529768625 -0.62368595
v 0.01544625 -0.000017487499999999998 -0.62368595
v 0.00478196875 0.1529768625 -0.62399063125
v 0.00478196875 -0.000017487499999999998 -0.62399063125
v -0.0028353750000000002 0.1529768625 -0.62399063125
v -0.0028353750000000002 -0.000017487499999999998 -0.62399063125
v -0.02020291875 -0.000017487499999999998 -0.62368595
v -0.02020291875 0.1529768625 -0.62368595
v -0.08575016249999999 0.1529768625 -0.61820144375
v -0.08575016249999999 -0.000017487499999999998 -0.61820144375
v -0.17750106875000002 0.1529768625 -0.598091675
v -0.17750106875000002 -0.000017487499999999998 -0.598091675
v -0.24579055625 0.1529768625 -0.57339240625
v -0.24579055625 -0.000017487499999999998 -0.57339240625
v -0.34119779375 0.1529768625 -0.5224895375
v -0.34119779375 -0.000017487499999999998 -0.5224895375
v -0.41192483125 0.1529768625 -0.46884439375000003
v -0.41192483125 -0.000017487499999999998 -0.46884439375000003
v -0.47381575625 0.1529768625 -0.406039375
v -0.47381575625 -0.000017487499999999998 -0.406039375
v -0.5067226812500001 -0.000017487499999999998 -0.3639726125
v -0.5067226812500001 0.1529768625 -0.3639726125
v -0.54819911875 -0.000017487499999999998 -0.2984253625
v -0.54819911875 0.1529768625 -0.2984253625
v -0.58019195 0.1529768625 -0.229831175
v -0.58019195 -0.000017487499999999998 -0.229831175
v -0.61098505625 0.1529768625 -0.12650190625
v -0.61098505625 -0.000017487499999999998 -0.12650190625
v -0.62073525625 0.1529768625 -0.06491568125
v -0.62073525625 -0.000017487499999999998 -0.06491568125
v -0.62408689375 -0.000017487499999999998 0.005792312500000001
v -0.62408689375 0.1529768625 0.005792312500000001
v -0.6210399375 0.1529768625 0.0621797
v -0.6210399375 -0.000017487499999999998 0.0621797
v -0.61098505625 -0.000017487499999999998 0.1265081625
v -0.61098505625 0.1529768625 0.1265081625
v -0.5963597562499999 0.1529768625 0.18380964375
v -0.5963597562499999 -0.000017487499999999998 0.18380964375
v -0.56495724375 0.1529768625 0.26520095
v -0.56495724375 -0.000017487499999999998 0.26520095
v -0.51557783125 0.1529768625 0.35148640000000003
v -0.51557783125 -0.000017487499999999998 0.35148640000000003
v -0.47747208125 0.1529768625 0.40177994375
v -0.47747208125 -0.000017487499999999998 0.40177994375
v -0.40674504375 0.1529768625 0.47311634375
v -0.40674504375 -0.000017487499999999998 0.47311634375
v -0.37107680625 0.1529768625 0.5017575750000001
v -0.37107680625 -0.000017487499999999998 0.5017575750000001
v -0.31408005625 -0.000017487499999999998 0.539253925
v -0.31408005625 0.1529768625 0.539253925
v -0.218349075 0.1529768625 0.5846723625
v -0.218349075 -0.000017487499999999998 0.5846723625
v -0.15617250625 -0.000017487499999999998 0.60419180625
v -0.15617250625 0.1529768625 0.60419180625
v -0.0942815875 0.1529768625 0.61668424375
v -0.0942815875 -0.000017487499999999998 0.61668424375
v -0.00009313125 -0.000017487499999999998 0.62399689375
v -0.00009313125 0.1529768625 0.62399689375
v 0.0687867 0.1529768625 0.62034056875
v 0.0687867 -0.000017487499999999998 0.62034056875
vt 0.046875 0.984375
vt 0.015625 0.984375
vt 0.015625 0.953125
vt 0.109375 0.984375
vt 0.078125 0.984375
vt 0.078125 0.953125
vt 0.171875 0.984375
vt 0.140625 0.984375
vt 0.140625 0.953125
vt 0.234375 0.984375
vt 0.203125 0.984375
vt 0.203125 0.953125
vt 0.296875 0.984375
vt 0.265625 0.984375
vt 0.265625 0.953125
vt 0.359375 0.984375
vt 0.328125 0.984375
vt 0.328125 0.953125
vt 0.421875 0.984375
vt 0.390625 0.984375
vt 0.390625 0.953125
vt 0.484375 0.984375
vt 0.453125 0.984375
vt 0.453125 0.953125
vt 0.546875 0.984375
vt 0.515625 0.984375
vt 0.515625 0.953125
vt 0.609375 0.984375
vt 0.578125 0.984375
vt 0.578125 0.953125
vt 0.671875 0.984375
vt 0.640625 0.984375
vt 0.640625 0.953125
vt 0.734375 0.984375
vt 0.703125 0.984375
vt 0.703125 0.953125
vt 0.796875 0.984375
vt 0.765625 0.984375
vt 0.765625 0.953125
vt 0.859375 0.984375
vt 0.828125 0.984375
vt 0.828125 0.953125
vt 0.921875 0.984375
vt 0.890625 0.984375
vt 0.890625 0.953125
vt 0.984375 0.984375
vt 0.953125 0.984375
vt 0.953125 0.953125
vt 0.046875 0.921875
vt 0.015625 0.921875
vt 0.015625 0.890625
vt 0.109375 0.921875
vt 0.078125 0.921875
vt 0.078125 0.890625
vt 0.171875 0.921875
vt 0.140625 0.921875
vt 0.140625 0.890625
vt 0.234375 0.921875
vt 0.203125 0.921875
vt 0.203125 0.890625
vt 0.296875 0.921875
vt 0.265625 0.921875
vt 0.265625 0.890625
vt 0.359375 0.921875
vt 0.328125 0.921875
vt 0.328125 0.890625
vt 0.421875 0.921875
vt 0.390625 0.921875
vt 0.390625 0.890625
vt 0.484375 0.921875
vt 0.453125 0.921875
vt 0.453125 0.890625
vt 0.546875 0.921875
vt 0.515625 0.921875
vt 0.515625 0.890625
vt 0.609375 0.921875
vt 0.578125 0.921875
vt 0.578125 0.890625
vt 0.671875 0.921875
vt 0.640625 0.921875
vt 0.640625 0.890625
vt 0.734375 0.921875
vt 0.703125 0.921875
vt 0.703125 0.890625
vt 0.796875 0.921875
vt 0.765625 0.921875
vt 0.765625 0.890625
vt 0.859375 0.921875
vt 0.828125 0.921875
vt 0.828125 0.890625
vt 0.921875 0.921875
vt 0.890625 0.921875
vt 0.890625 0.890625
vt 0.984375 0.921875
vt 0.953125 0.921875
vt 0.953125 0.890625
vt 0.046875 0.859375
vt 0.015625 0.859375
vt 0.015625 0.828125
vt 0.109375 0.859375
vt 0.078125 0.859375
vt 0.078125 0.828125
vt 0.171875 0.859375
vt 0.140625 0.859375
vt 0.140625 0.828125
vt 0.234375 0.859375
vt 0.203125 0.859375
vt 0.203125 0.828125
vt 0.296875 0.859375
vt 0.265625 0.859375
vt 0.265625 0.828125
vt 0.359375 0.859375
vt 0.328125 0.859375
vt 0.328125 0.828125
vt 0.421875 0.859375
vt 0.390625 0.859375
vt 0.390625 0.828125
vt 0.484375 0.859375
vt 0.453125 0.859375
vt 0.453125 0.828125
vt 0.546875 0.859375
vt 0.515625 0.859375
vt 0.515625 0.828125
vt 0.609375 0.859375
vt 0.578125 0.859375
vt 0.578125 0.828125
vt 0.671875 0.859375
vt 0.640625 0.859375
vt 0.640625 0.828125
vt 0.734375 0.859375
vt 0.703125 0.859375
vt 0.703125 0.828125
vt 0.796875 0.859375
vt 0.765625 0.859375
vt 0.765625 0.828125
vt 0.859375 0.859375
vt 0.828125 0.859375
vt 0.828125 0.828125
vt 0.921875 0.859375
vt 0.890625 0.859375
vt 0.890625 0.828125
vt 0.984375 0.859375
vt 0.953125 0.859375
vt 0.953125 0.828125
vt 0.046875 0.796875
vt 0.015625 0.796875
vt 0.015625 0.765625
vt 0.109375 0.796875
vt 0.078125 0.796875
vt 0.078125 0.765625
vt 0.171875 0.796875
vt 0.140625 0.796875
vt 0.140625 0.765625
vt 0.234375 0.796875
vt 0.203125 0.796875
vt 0.203125 0.765625
vt 0.296875 0.796875
vt 0.265625 0.796875
vt 0.265625 0.765625
vt 0.359375 0.796875
vt 0.328125 0.796875
vt 0.328125 0.765625
vt 0.421875 0.796875
vt 0.390625 0.796875
vt 0.390625 0.765625
vt 0.484375 0.796875
vt 0.453125 0.796875
vt 0.453125 0.765625
vt 0.546875 0.796875
vt 0.515625 0.796875
vt 0.515625 0.765625
vt 0.609375 0.796875
vt 0.578125 0.796875
vt 0.578125 0.765625
vt 0.671875 0.796875
vt 0.640625 0.796875
vt 0.640625 0.765625
vt 0.734375 0.796875
vt 0.703125 0.796875
vt 0.703125 0.765625
vt 0.796875 0.796875
vt 0.765625 0.796875
vt 0.765625 0.765625
vt 0.859375 0.796875
vt 0.828125 0.796875
vt 0.828125 0.765625
vt 0.921875 0.796875
vt 0.890625 0.796875
vt 0.890625 0.765625
vt 0.984375 0.796875
vt 0.953125 0.796875
vt 0.953125 0.765625
vt 0.046875 0.734375
vt 0.015625 0.734375
vt 0.015625 0.703125
vt 0.109375 0.734375
vt 0.078125 0.734375
vt 0.078125 0.703125
vt 0.171875 0.734375
vt 0.140625 0.734375
vt 0.140625 0.703125
vt 0.234375 0.734375
vt 0.203125 0.734375
vt 0.203125 0.703125
vt 0.296875 0.734375
vt 0.265625 0.734375
vt 0.265625 0.703125
vt 0.359375 0.734375
vt 0.328125 0.734375
vt 0.328125 0.703125
vt 0.421875 0.734375
vt 0.390625 0.734375
vt 0.390625 0.703125
vt 0.484375 0.734375
vt 0.453125 0.734375
vt 0.453125 0.703125
vt 0.546875 0.734375
vt 0.515625 0.734375
vt 0.515625 0.703125
vt 0.609375 0.734375
vt 0.578125 0.734375
vt 0.578125 0.703125
vt 0.671875 0.734375
vt 0.640625 0.734375
vt 0.640625 0.703125
vt 0.734375 0.734375
vt 0.703125 0.734375
vt 0.703125 0.703125
vt 0.796875 0.734375
vt 0.765625 0.734375
vt 0.765625 0.703125
vt 0.859375 0.734375
vt 0.828125 0.734375
vt 0.828125 0.703125
vt 0.921875 0.734375
vt 0.890625 0.734375
vt 0.890625 0.703125
vt 0.984375 0.734375
vt 0.953125 0.734375
vt 0.953125 0.703125
vt 0.046875 0.671875
vt 0.015625 0.671875
vt 0.015625 0.640625
vt 0.109375 0.671875
vt 0.078125 0.671875
vt 0.078125 0.640625
vt 0.171875 0.671875
vt 0.140625 0.671875
vt 0.140625 0.640625
vt 0.234375 0.671875
vt 0.203125 0.671875
vt 0.203125 0.640625
vt 0.296875 0.671875
vt 0.265625 0.671875
vt 0.265625 0.640625
vt 0.359375 0.671875
vt 0.328125 0.671875
vt 0.328125 0.640625
vt 0.421875 0.671875
vt 0.390625 0.671875
vt 0.390625 0.640625
vt 0.484375 0.671875
vt 0.453125 0.671875
vt 0.453125 0.640625
vt 0.546875 0.671875
vt 0.515625 0.671875
vt 0.515625 0.640625
vt 0.609375 0.671875
vt 0.578125 0.671875
vt 0.578125 0.640625
vt 0.671875 0.671875
vt 0.640625 0.671875
vt 0.640625 0.640625
vt 0.734375 0.671875
vt 0.703125 0.671875
vt 0.703125 0.640625
vt 0.796875 0.671875
vt 0.765625 0.671875
vt 0.765625 0.640625
vt 0.859375 0.671875
vt 0.828125 0.671875
vt 0.828125 0.640625
vt 0.921875 0.671875
vt 0.890625 0.671875
vt 0.890625 0.640625
vt 0.984375 0.671875
vt 0.953125 0.671875
vt 0.953125 0.640625
vt 0.046875 0.609375
vt 0.015625 0.609375
vt 0.015625 0.578125
vt 0.109375 0.609375
vt 0.078125 0.609375
vt 0.078125 0.578125
vt 0.171875 0.609375
vt 0.140625 0.609375
vt 0.140625 0.578125
vt 0.234375 0.609375
vt 0.203125 0.609375
vt 0.203125 0.578125
vt 0.296875 0.609375
vt 0.265625 0.609375
vt 0.265625 0.578125
vt 0.359375 0.609375
vt 0.328125 0.609375
vt 0.328125 0.578125
vt 0.421875 0.609375
vt 0.390625 0.609375
vt 0.390625 0.578125
vt 0.484375 0.609375
vt 0.453125 0.609375
vt 0.453125 0.578125
vt 0.546875 0.609375
vt 0.515625 0.609375
vt 0.515625 0.578125
vt 0.609375 0.609375
vt 0.578125 0.609375
vt 0.578125 0.578125
vt 0.671875 0.609375
vt 0.640625 0.609375
vt 0.640625 0.578125
vt 0.734375 0.609375
vt 0.703125 0.609375
vt 0.703125 0.578125
vn 0.31841470270437666 0 0.9479515162188854
vn 0.31841470270437666 0 0.9479515162188854
vn 0.46072439316490094 0 0.8875432572797981
vn 0.46072439316490094 0 0.8875432572797981
vn 0.5807620651583679 0 0.8140733527594353
vn 0.5807620651583679 0 0.8140733527594353
vn 0.6825648083589595 0 0.7308250696232972
vn 0.6825648083589595 0 0.7308250696232972
vn 0.7670946878438609 0 0.6415338961284348
vn 0.7670946878438609 0 0.6415338961284348
vn 0.8448963722706264 0 0.5349300142298384
vn 0.8448963722706264 0 0.5349300142298384
vn 0.9210628168624551 0 0.3894140308121934
vn 0.9210628168624551 0 0.3894140308121934
vn 0.9631868758297263 0 0.2688327402482284
vn 0.9631868758297263 0 0.2688327402482284
vn 0.9845167021071263 0 0.17529079631317865
vn 0.9845167021071263 0 0.17529079631317865
vn 0.9989617584825269 0 0.04555661411362399
vn 0.9989617584825269 0 0.04555661411362399
vn 0.9964885240948602 0 -0.08372945328405822
vn 0.9964885240948602 0 -0.08372945328405822
vn 0.9793513475156482 0 -0.20216562051764433
vn 0.9793513475156482 0 -0.20216562051764433
vn 0.9480859466117096 0 -0.31801421011863357
vn 0.9480859466117096 0 -0.31801421011863357
vn 0.916024390390491 0 -0.4011225700577436
vn 0.916024390390491 0 -0.4011225700577436
vn -0.8615009364340298 0 0.5077559812777097
vn -0.8615009364340298 0 0.5077559812777097
vn -0.7943247657819806 0 0.6074933468486727
vn -0.7943247657819806 0 0.6074933468486727
vn -0.7055983231819307 0 0.7086120280681436
vn -0.7055983231819307 0 0.7086120280681436
vn -0.5915977392187161 0 0.8062332881686939
vn -0.5915977392187161 0 0.8062332881686939
vn -0.49894666316655584 0 0.8666326945799815
vn -0.49894666316655584 0 0.8666326945799815
vn -0.4170737660127107 0 0.9088726388796038
vn -0.4170737660127107 0 0.9088726388796038
vn -0.3314106777050697 0 0.9434865991115435
vn -0.3314106777050697 0 0.9434865991115435
vn -0.2472067188632381 0 0.9689627640672638
vn -0.2472067188632381 0 0.9689627640672638
vn -0.12135056508338728 0 0.9926097119985995
vn -0.12135056508338728 0 0.9926097119985995
vn -0.029402064220913536 0 0.9995676658533676
vn -0.029402064220913536 0 0.9995676658533676
vn -0.02855860319549093 0 0.9995921199086768
vn -0.02855860319549093 0 0.9995921199086768
vn 0 0 1
vn 0 0 1
vn 0.017540440984958074 0 0.9998461546308279
vn 0.017540440984958074 0 0.9998461546308279
vn 0.08338119770263493 0 0.9965177248146037
vn 0.08338119770263493 0 0.9965177248146037
vn 0.21409572919836445 0 0.9768126835473732
vn 0.21409572919836445 0 0.9768126835473732
vn 0.34012166147164363 0 0.9403814414362764
vn 0.34012166147164363 0 0.9403814414362764
vn 0.47072508546857633 0 0.8822799407844437
vn 0.47072508546857633 0 0.8822799407844437
vn 0.6043160487082464 0 0.7967446976752669
vn 0.6043160487082464 0 0.7967446976752669
vn 0.7122711473638718 0 0.7019044184452422
vn 0.7122711473638718 0 0.7019044184452422
vn 0.787640285668393 0 0.6161353588232152
vn 0.787640285668393 0 0.6161353588232152
vn 0.8450335795334488 0 0.5347132404017001
vn 0.8450335795334488 0 0.5347132404017001
vn 0.9062731886461463 0 0.42269245030062547
vn 0.9062731886461463 0 0.42269245030062547
vn 0.9583497061298486 0 0.2855973402551799
vn 0.9583497061298486 0 0.2855973402551799
vn 0.9876984975730457 0 0.15637032292589378
vn 0.9876984975730457 0 0.15637032292589378
vn 0.9988784569251395 0 0.04734794917261299
vn 0.9988784569251395 0 0.04734794917261299
vn 0.9985432377094423 0 -0.05395741306571592
vn 0.9985432377094423 0 -0.05395741306571592
vn 0.9880036949998035 0 -0.15443023883532464
vn 0.9880036949998035 0 -0.15443023883532464
vn 0.9689374275904786 0 -0.24730600763900998
vn 0.9689374275904786 0 -0.24730600763900998
vn 0.9329680818935756 0 -0.3599591062437822
vn 0.9329680818935756 0 -0.3599591062437822
vn 0.8679247430136293 0 -0.4966957222130321
vn 0.8679247430136293 0 -0.4966957222130321
vn 0.7970572060429222 0 -0.6039038088098556
vn 0.7970572060429222 0 -0.6039038088098556
vn 0.7101332903396288 0 -0.7040672623772621
vn 0.7101332903396288 0 -0.7040672623772621
vn 0.6261155036086209 0 -0.7797303227019731
vn 0.6261155036086209 0 -0.7797303227019731
vn 0.5496010356071171 0 -0.835427256952743
vn 0.5496010356071171 0 -0.835427256952743
vn -0.4286426601324981 0 0.9034741113692943
vn -0.4286426601324981 0 0.9034741113692943
vn -0.29952264463174744 0 0.9540891915082176
vn -0.29952264463174744 0 0.9540891915082176
vn -0.19785578409398616 0 0.980231140446249
vn -0.19785578409398616 0 0.980231140446249
vn -0.07740555548371193 0 0.9969996890572524
vn -0.07740555548371193 0 0.9969996890572524
vn 0.0530080352189656 0 0.9985940858037489
vn 0.0530080352189656 0 0.9985940858037489
vn 0.18148371622538895 0 0.9833939499229302
vn 0.18148371622538895 0 0.9833939499229302
usemtl none
f 1/1/1 2/2/1 3/3/1
f 1/4/2 4/5/2 2/6/2
f 5/7/3 1/8/3 3/9/3
f 5/10/4 3/11/4 6/12/4
f 7/13/5 5/14/5 6/15/5
f 7/16/6 6/17/6 8/18/6
f 9/19/7 7/20/7 8/21/7
f 9/22/8 8/23/8 10/24/8
f 11/25/9 9/26/9 10/27/9
f 11/28/10 10/29/10 12/30/10
f 12/31/11 13/32/11 11/33/11
f 12/34/12 14/35/12 13/36/12
f 15/37/13 13/38/13 14/39/13
f 15/40/14 14/41/14 16/42/14
f 17/43/15 15/44/15 16/45/15
f 17/46/16 16/47/16 18/48/16
f 19/49/17 17/50/17 18/51/17
f 19/52/18 18/53/18 20/54/18
f 21/55/19 19/56/19 20/57/19
f 21/58/20 20/59/20 22/60/20
f 23/61/21 21/62/21 22/63/21
f 23/64/22 22/65/22 24/66/22
f 25/67/23 23/68/23 24/69/23
f 25/70/24 24/71/24 26/72/24
f 27/73/25 25/74/25 26/75/25
f 27/76/26 26/77/26 28/78/26
f 29/79/27 27/80/27 28/81/27
f 29/82/28 28/83/28 30/84/28
f 29/85/29 31/86/29 30/87/29
f 30/88/30 31/89/30 32/90/30
f 31/91/31 33/92/31 32/93/31
f 32/94/32 33/95/32 34/96/32
f 33/97/33 35/98/33 34/99/33
f 34/100/34 35/101/34 36/102/34
f 35/103/35 37/104/35 36/105/35
f 36/106/36 37/107/36 38/108/36
f 37/109/37 39/110/37 38/111/37
f 38/112/38 39/113/38 40/114/38
f 39/115/39 41/116/39 40/117/39
f 40/118/40 41/119/40 42/120/40
f 41/121/41 43/122/41 42/123/41
f 44/124/42 43/125/42 41/126/42
f 44/127/43 45/128/43 43/129/43
f 43/130/44 45/131/44 46/132/44
f 45/133/45 47/134/45 46/135/45
f 46/136/46 47/137/46 48/138/46
f 47/139/47 49/140/47 48/141/47
f 48/142/48 49/143/48 50/144/48
f 49/145/49 51/146/49 50/147/49
f 50/148/50 51/149/50 52/150/50
f 51/151/51 53/152/51 52/153/51
f 52/154/52 53/155/52 54/156/52
f 55/157/53 54/158/53 53/159/53
f 56/160/54 55/161/54 53/162/54
f 56/163/55 57/164/55 55/165/55
f 55/166/56 57/167/56 58/168/56
f 57/169/57 59/170/57 58/171/57
f 58/172/58 59/173/58 60/174/58
f 59/175/59 61/176/59 60/177/59
f 60/178/60 61/179/60 62/180/60
f 61/181/61 63/182/61 62/183/61
f 62/184/62 63/185/62 64/186/62
f 63/187/63 65/188/63 64/189/63
f 64/190/64 65/191/64 66/192/64
f 65/193/65 67/194/65 66/195/65
f 66/196/66 67/197/66 68/198/66
f 67/199/67 69/200/67 68/201/67
f 70/202/68 69/203/68 67/204/68
f 70/205/69 71/206/69 69/207/69
f 72/208/70 71/209/70 70/210/70
f 72/211/71 73/212/71 71/213/71
f 71/214/72 73/215/72 74/216/72
f 73/217/73 75/218/73 74/219/73
f 74/220/74 75/221/74 76/222/74
f 75/223/75 77/224/75 76/225/75
f 76/226/76 77/227/76 78/228/76
f 77/229/77 79/230/77 78/231/77
f 80/232/78 79/233/78 77/234/78
f 80/235/79 81/236/79 79/237/79
f 79/238/80 81/239/80 82/240/80
f 81/241/81 83/242/81 82/243/81
f 84/244/82 83/245/82 81/246/82
f 84/247/83 85/248/83 83/249/83
f 83/250/84 85/251/84 86/252/84
f 85/253/85 87/254/85 86/255/85
f 86/256/86 87/257/86 88/258/86
f 87/259/87 89/260/87 88/261/87
f 88/262/88 89/263/88 90/264/88
f 89/265/89 91/266/89 90/267/89
f 90/268/90 91/269/90 92/270/90
f 91/271/91 93/272/91 92/273/91
f 92/274/92 93/275/92 94/276/92
f 93/277/93 95/278/93 94/279/93
f 94/280/94 95/281/94 96/282/94
f 95/283/95 97/284/95 96/285/95
f 98/286/96 97/287/96 95/288/96
f 97/289/97 99/290/97 98/291/97
f 97/292/98 100/293/98 99/294/98
f 101/295/99 99/296/99 100/297/99
f 101/298/100 102/299/100 99/300/100
f 101/301/101 103/302/101 102/303/101
f 101/304/102 104/305/102 103/306/102
f 105/307/103 103/308/103 104/309/103
f 105/310/104 106/311/104 103/312/104
f 107/313/105 106/314/105 105/315/105
f 107/316/106 105/317/106 108/318/106
f 4/319/107 107/320/107 108/321/107
f 4/322/108 108/323/108 2/324/108
